<svg xmlns="http://www.w3.org/2000/svg" xmlns:xlink="http://www.w3.org/1999/xlink" preserveAspectRatio="xMidYMid" width="30.593" height="36" viewBox="0 0 30.593 36">
  <defs>
    <style>
      .cls-1 {
        fill: #353535;
        fill-rule: evenodd;
      }
    </style>
  </defs>
  <path d="M28.902,-0.003 L1.716,-0.003 C0.777,-0.003 0.010,0.766 0.010,1.708 L0.010,31.061 C0.010,32.002 0.777,32.772 1.716,32.772 L3.051,32.772 L3.051,34.288 C3.051,35.229 3.819,35.999 4.757,35.999 L6.005,35.999 C6.943,35.999 7.711,35.229 7.711,34.288 L7.711,32.772 L22.913,32.772 L22.913,34.288 C22.913,35.229 23.680,35.999 24.619,35.999 L25.866,35.999 C26.805,35.999 27.572,35.229 27.572,34.288 L27.572,32.772 L28.902,32.772 C29.840,32.772 30.608,32.002 30.608,31.061 L30.608,1.708 C30.608,0.766 29.840,-0.003 28.902,-0.003 ZM5.033,1.834 L5.315,1.834 L25.490,1.834 L25.773,1.834 C26.711,1.834 27.478,2.604 27.478,3.545 C27.478,4.486 26.711,5.256 25.773,5.256 L25.490,5.256 L5.315,5.256 L5.033,5.256 C4.095,5.256 3.327,4.486 3.327,3.545 C3.327,2.604 4.095,1.834 5.033,1.834 ZM3.327,8.855 C3.327,7.914 4.095,7.145 5.033,7.145 L5.315,7.145 L25.490,7.145 L25.773,7.145 C26.711,7.145 27.478,7.914 27.478,8.855 L27.478,23.532 L27.197,23.532 L3.609,23.532 L3.327,23.532 L3.327,8.855 ZM7.810,29.316 L7.529,29.316 L5.315,29.316 L5.033,29.316 C4.095,29.316 3.327,28.546 3.327,27.605 C3.327,26.664 4.095,25.894 5.033,25.894 L5.315,25.894 L7.529,25.894 L7.810,25.894 C8.749,25.894 9.517,26.664 9.517,27.605 C9.517,28.546 8.749,29.316 7.810,29.316 ZM25.866,29.316 L25.584,29.316 L23.371,29.316 L23.089,29.316 C22.151,29.316 21.383,28.546 21.383,27.605 C21.383,26.664 22.151,25.894 23.089,25.894 L23.371,25.894 L25.584,25.894 L25.866,25.894 C26.805,25.894 27.572,26.664 27.572,27.605 C27.572,28.546 26.805,29.316 25.866,29.316 Z" class="cls-1"/>
</svg>
