<svg xmlns="http://www.w3.org/2000/svg" xmlns:xlink="http://www.w3.org/1999/xlink" preserveAspectRatio="xMidYMid" width="19.999" height="19.999" viewBox="0 0 19 19">
  <defs>
    <style>
      .cls-1 {
        fill: #64666c;
        fill-rule: evenodd;
      }
    </style>
  </defs>
  <path d="M16.887,-0.000 L2.110,-0.000 C0.949,-0.000 -0.001,0.950 -0.001,2.111 L-0.001,16.890 C-0.001,18.052 0.949,19.001 2.110,19.001 L9.499,19.001 L9.499,11.612 L7.388,11.612 L7.388,8.999 L9.499,8.999 L9.499,6.835 C9.499,4.551 10.778,2.946 13.473,2.946 L15.376,2.948 L15.376,5.698 L14.113,5.698 C13.064,5.698 12.665,6.485 12.665,7.216 L12.665,9.000 L15.375,9.000 L14.776,11.612 L12.665,11.612 L12.665,19.001 L16.887,19.001 C18.048,19.001 18.997,18.052 18.997,16.890 L18.997,2.111 C18.997,0.950 18.048,-0.000 16.887,-0.000 Z" class="cls-1"/>
</svg>
