<svg xmlns="http://www.w3.org/2000/svg" xmlns:xlink="http://www.w3.org/1999/xlink" preserveAspectRatio="xMidYMid" width="20" height="20" viewBox="0 0 20 20">
  <defs>
    <style>
      .cls-1 {
        fill: #64666c;
        fill-rule: evenodd;
      }
    </style>
  </defs>
  <path d="M4.439,2.222 C4.439,3.444 3.661,4.445 2.216,4.445 C0.883,4.445 -0.006,3.444 -0.006,2.334 C-0.006,1.112 0.883,0.000 2.216,0.000 C3.550,0.000 4.439,1.000 4.439,2.222 ZM-0.006,20.000 L4.439,20.000 L4.439,5.556 L-0.006,5.556 L-0.006,20.000 ZM15.110,5.778 C12.775,5.778 11.442,7.112 10.886,8.000 L10.775,8.000 L10.552,6.112 L6.551,6.112 C6.551,7.334 6.662,8.778 6.662,10.445 L6.662,20.000 L11.108,20.000 L11.108,12.111 C11.108,11.667 11.108,11.334 11.219,11.001 C11.553,10.223 12.109,9.222 13.331,9.222 C14.887,9.222 15.554,10.556 15.554,12.333 L15.554,20.000 L20.000,20.000 L20.000,11.778 C20.000,7.667 17.888,5.778 15.110,5.778 Z" class="cls-1"/>
</svg>
