<svg xmlns="http://www.w3.org/2000/svg" xmlns:xlink="http://www.w3.org/1999/xlink" preserveAspectRatio="xMidYMid" width="293.675" height="47.367" viewBox="0 0 279 45">
  <defs>
    <style>
      .cls-1 {
        fill: #fff;
        fill-rule: evenodd;
      }
    </style>
  </defs>
  <path d="M274.747,19.287 C273.561,19.287 272.789,19.911 272.789,20.848 C272.789,23.500 278.999,22.954 278.999,27.844 C278.999,30.652 276.937,32.291 273.407,32.291 C272.093,32.291 270.469,32.083 269.387,31.744 L269.232,27.505 L270.340,27.505 C270.495,29.768 271.552,30.990 273.330,30.990 C274.644,30.990 275.520,30.236 275.520,29.118 C275.520,26.283 269.258,26.725 269.258,21.992 C269.258,19.365 271.191,17.987 274.927,17.987 C276.241,17.987 277.582,18.169 278.329,18.429 L278.329,22.044 L277.324,22.044 C277.092,20.223 276.216,19.287 274.747,19.287 ZM264.543,19.547 L264.543,27.714 C264.543,28.988 264.594,29.378 264.800,29.690 C265.084,30.158 265.547,30.418 266.166,30.418 C266.758,30.418 267.299,30.236 267.764,29.690 L268.356,30.548 C267.454,31.693 265.960,32.291 264.233,32.291 C263.202,32.291 262.172,32.031 261.527,31.562 C260.754,30.990 260.548,30.002 260.548,28.598 L260.548,19.547 L258.718,19.547 L258.564,18.741 L263.743,14.762 L264.543,14.892 L264.543,18.247 L268.536,18.247 L268.150,19.547 L264.543,19.547 ZM255.161,32.291 C253.486,32.291 252.662,31.614 252.404,30.236 L252.301,30.236 C251.013,31.640 249.646,32.291 248.074,32.291 C245.962,32.291 244.673,31.146 244.673,29.222 C244.673,26.621 247.018,25.113 252.224,24.385 L252.224,22.486 C252.224,20.119 251.889,19.495 250.652,19.495 C249.363,19.495 248.564,20.171 248.564,21.264 C248.564,21.654 248.668,22.044 248.668,22.408 C248.668,23.396 247.894,24.150 246.890,24.150 C245.884,24.150 245.188,23.422 245.188,22.382 C245.188,21.290 245.936,20.145 247.224,19.287 C248.539,18.429 250.239,17.987 252.095,17.987 C253.950,17.987 255.058,18.429 255.625,19.287 C256.037,19.937 256.218,20.848 256.218,22.772 L256.218,28.130 C256.218,29.664 256.501,30.314 257.197,30.314 C257.584,30.314 257.970,30.106 258.331,29.690 L258.923,30.548 C257.815,31.744 256.630,32.291 255.161,32.291 ZM252.224,25.607 C249.724,26.101 248.977,26.699 248.977,28.156 C248.977,29.300 249.440,29.846 250.446,29.846 C251.141,29.846 251.760,29.586 252.224,29.092 L252.224,25.607 ZM235.680,31.120 L237.870,30.600 L237.870,20.562 L235.680,19.859 L235.680,19.235 L241.323,17.987 L241.865,17.987 L241.865,30.600 L243.926,31.120 L243.926,32.031 L235.680,32.031 L235.680,31.120 ZM239.829,16.036 C238.386,16.036 237.613,14.970 237.613,13.904 C237.613,12.759 238.437,11.745 239.829,11.745 C241.246,11.745 242.122,12.759 242.122,13.904 C242.122,14.970 241.349,16.036 239.829,16.036 ZM233.257,23.188 C231.969,23.188 231.660,22.278 231.556,21.498 C231.402,20.275 231.067,19.339 229.675,19.339 C227.511,19.339 226.248,21.212 226.248,24.515 C226.248,27.844 227.537,29.612 230.088,29.612 C231.634,29.612 232.948,29.014 233.901,27.895 L234.081,27.687 L234.803,28.260 L234.675,28.572 C233.644,31.068 231.634,32.291 228.851,32.291 C224.805,32.291 221.919,29.378 221.919,25.321 C221.919,21.056 225.088,17.987 229.546,17.987 C232.664,17.987 234.983,19.469 234.983,21.446 C234.983,22.512 234.314,23.188 233.257,23.188 ZM212.976,32.291 C208.260,32.291 205.631,29.066 205.631,25.139 C205.631,21.212 208.260,17.987 212.976,17.987 C217.691,17.987 220.320,21.212 220.320,25.139 C220.320,29.066 217.691,32.291 212.976,32.291 ZM212.976,19.339 C210.425,19.339 209.961,22.746 209.961,25.139 C209.961,27.557 210.425,30.964 212.976,30.964 C215.475,30.964 215.991,27.557 215.991,25.139 C215.991,22.746 215.526,19.339 212.976,19.339 ZM198.725,32.291 C197.411,32.291 195.787,32.083 194.705,31.744 L194.550,27.505 L195.658,27.505 C195.813,29.768 196.870,30.990 198.648,30.990 C199.961,30.990 200.838,30.236 200.838,29.118 C200.838,26.283 194.576,26.725 194.576,21.992 C194.576,19.365 196.509,17.987 200.245,17.987 C201.559,17.987 202.900,18.169 203.647,18.429 L203.647,22.044 L202.642,22.044 C202.410,20.223 201.534,19.287 200.065,19.287 C198.879,19.287 198.107,19.911 198.107,20.848 C198.107,23.500 204.317,22.954 204.317,27.844 C204.317,30.652 202.255,32.291 198.725,32.291 ZM187.283,32.291 C185.968,32.291 184.345,32.083 183.262,31.744 L183.108,27.505 L184.216,27.505 C184.371,29.768 185.427,30.990 187.205,30.990 C188.520,30.990 189.396,30.236 189.396,29.118 C189.396,26.283 183.134,26.725 183.134,21.992 C183.134,19.365 185.066,17.987 188.803,17.987 C190.117,17.987 191.457,18.169 192.204,18.429 L192.204,22.044 L191.199,22.044 C190.968,20.223 190.092,19.287 188.622,19.287 C187.437,19.287 186.664,19.911 186.664,20.848 C186.664,23.500 192.874,22.954 192.874,27.844 C192.874,30.652 190.813,32.291 187.283,32.291 ZM172.079,31.068 C173.960,31.016 174.604,30.808 174.604,30.106 C174.604,29.846 174.527,29.482 174.372,29.066 L173.341,26.257 L167.543,26.257 L166.796,28.233 C166.615,28.728 166.513,29.118 166.513,29.456 C166.513,30.340 167.285,30.756 169.424,31.068 L169.424,32.031 L161.436,32.031 L161.436,31.068 C163.858,30.652 164.193,30.288 165.018,28.182 L169.889,15.646 L168.703,12.967 L172.543,11.485 L179.913,29.482 C180.402,30.678 180.814,30.938 182.695,31.068 L182.695,32.031 L172.079,32.031 L172.079,31.068 ZM170.558,18.611 L170.455,18.611 L168.110,24.774 L172.800,24.774 L170.558,18.611 ZM148.427,31.120 L150.618,30.600 L150.618,20.562 L148.427,19.859 L148.427,19.235 L154.071,17.987 L154.612,17.987 L154.612,30.600 L156.673,31.120 L156.673,32.031 L148.427,32.031 L148.427,31.120 ZM152.576,16.036 C151.133,16.036 150.360,14.970 150.360,13.904 C150.360,12.759 151.184,11.745 152.576,11.745 C153.994,11.745 154.870,12.759 154.870,13.904 C154.870,14.970 154.097,16.036 152.576,16.036 ZM136.254,32.291 C131.538,32.291 128.910,29.066 128.910,25.139 C128.910,21.212 131.538,17.987 136.254,17.987 C140.970,17.987 143.598,21.212 143.598,25.139 C143.598,29.066 140.970,32.291 136.254,32.291 ZM136.254,19.339 C133.703,19.339 133.239,22.746 133.239,25.139 C133.239,27.557 133.703,30.964 136.254,30.964 C138.753,30.964 139.269,27.557 139.269,25.139 C139.269,22.746 138.805,19.339 136.254,19.339 ZM135.713,15.620 L134.914,15.334 L135.971,11.407 C136.280,10.289 136.898,9.690 137.903,9.690 C138.599,9.690 139.063,10.159 139.063,10.861 C139.063,11.381 138.805,12.057 138.212,12.733 L135.713,15.620 ZM120.534,31.120 L122.725,30.600 L122.725,13.019 L120.534,12.317 L120.534,11.693 L126.178,10.445 L126.719,10.445 L126.719,30.600 L128.781,31.120 L128.781,32.031 L120.534,32.031 L120.534,31.120 ZM111.618,31.120 L113.808,30.600 L113.808,13.019 L111.618,12.317 L111.618,11.693 L117.261,10.445 L117.802,10.445 L117.802,30.600 L119.864,31.120 L119.864,32.031 L111.618,32.031 L111.618,31.120 ZM112.133,24.488 L102.753,24.488 C102.779,27.948 104.119,29.612 106.799,29.612 C108.293,29.612 109.994,29.040 110.999,27.895 L111.179,27.687 L111.901,28.311 L111.772,28.624 C110.819,30.964 108.370,32.291 105.562,32.291 C101.284,32.291 98.475,29.482 98.475,25.347 C98.475,20.978 101.619,17.987 106.206,17.987 C110.123,17.987 112.210,20.171 112.339,24.332 L112.133,24.488 ZM105.871,19.313 C104.093,19.313 103.036,20.717 102.804,23.266 L108.061,23.058 C108.113,22.902 108.164,22.512 108.164,22.070 C108.164,20.275 107.365,19.313 105.871,19.313 ZM96.723,21.732 C96.259,21.732 95.898,21.550 95.511,21.238 C95.048,20.848 94.661,20.613 94.300,20.613 C94.017,20.613 93.450,20.743 92.986,21.264 C92.548,21.758 92.445,22.096 92.393,22.408 L92.393,30.600 L95.769,31.120 L95.769,32.031 L86.467,32.031 L86.467,31.120 L88.399,30.600 L88.399,20.587 L86.441,19.859 L86.441,19.235 L91.723,17.987 L92.265,17.987 L92.265,20.353 C93.605,18.767 94.893,17.961 96.156,17.961 C97.444,17.961 98.372,18.793 98.372,19.911 C98.372,20.848 97.753,21.732 96.723,21.732 ZM76.699,24.488 C76.725,27.948 78.065,29.612 80.745,29.612 C82.239,29.612 83.940,29.040 84.945,27.895 L85.126,27.687 L85.847,28.311 L85.718,28.624 C84.765,30.964 82.317,32.291 79.508,32.291 C75.230,32.291 72.422,29.482 72.422,25.347 C72.422,20.978 75.565,17.987 80.152,17.987 C84.069,17.987 86.156,20.171 86.285,24.332 L86.079,24.488 L76.699,24.488 ZM79.817,19.313 C78.039,19.313 76.983,20.717 76.751,23.266 L82.008,23.058 C82.059,22.902 82.111,22.512 82.111,22.070 C82.111,20.275 81.312,19.313 79.817,19.313 ZM64.845,23.708 L63.299,23.708 L63.299,30.496 L66.520,31.068 L66.520,32.031 L56.676,32.031 L56.676,31.068 L58.866,30.496 L58.866,13.513 L56.676,12.967 L56.676,12.005 L65.257,12.005 C69.896,12.005 72.833,14.293 72.833,17.935 C72.833,21.602 69.921,23.708 64.845,23.708 ZM67.138,14.346 C66.494,13.696 65.515,13.409 63.943,13.409 L63.299,13.409 L63.299,22.304 L63.479,22.304 C65.077,22.304 66.185,21.966 66.958,21.238 C67.757,20.483 68.118,19.391 68.118,17.701 C68.118,16.114 67.782,14.996 67.138,14.346 ZM21.174,1.526 L20.441,0.739 L21.172,0.001 L21.176,0.005 L43.854,24.365 L21.175,2.862 L21.174,1.526 ZM21.178,6.091 L40.934,27.312 L21.181,8.584 L21.180,7.616 L17.521,3.686 L21.180,7.155 L21.178,6.091 ZM21.185,12.182 L38.014,30.259 L21.187,14.305 L21.187,13.707 L14.601,6.633 L21.186,12.876 L21.185,12.182 ZM21.192,18.272 L35.094,33.206 L21.193,20.026 L21.193,19.798 L11.680,9.580 L21.192,18.598 L21.192,18.272 ZM21.198,24.363 L32.174,36.153 L21.200,25.748 L21.200,25.889 L8.760,12.527 L21.198,24.320 L21.198,24.363 ZM21.205,30.454 L29.254,39.100 L21.206,31.469 L21.206,31.979 L5.840,15.474 L21.204,30.041 L21.205,30.454 ZM21.211,36.545 L26.334,42.047 L21.212,37.191 L21.213,38.070 L2.920,18.421 L21.210,35.762 L21.211,36.545 ZM21.218,42.635 L23.414,44.994 L21.218,42.912 L21.219,44.161 L0.000,21.368 L21.216,41.484 L21.218,42.635 Z" class="cls-1"/>
</svg>
