<svg xmlns="http://www.w3.org/2000/svg" xmlns:xlink="http://www.w3.org/1999/xlink" preserveAspectRatio="xMidYMid" width="24.312" height="36" viewBox="0 0 24.312 36">
  <defs>
    <style>
      .cls-1 {
        fill: #353535;
        fill-rule: evenodd;
      }
    </style>
  </defs>
  <path d="M12.159,-0.001 C5.461,-0.001 0.011,5.354 0.011,11.936 C0.011,14.568 1.691,18.805 5.147,24.889 C7.488,29.011 9.804,32.490 10.060,32.874 L12.159,36.000 L14.258,32.874 C14.359,32.724 16.750,29.153 19.172,24.889 C22.628,18.804 24.308,14.568 24.308,11.936 C24.308,5.354 18.858,-0.001 12.159,-0.001 ZM12.159,17.409 C9.045,17.409 6.511,14.919 6.511,11.858 C6.511,8.798 9.045,6.308 12.159,6.308 C15.274,6.308 17.808,8.798 17.808,11.858 C17.808,14.919 15.274,17.409 12.159,17.409 Z" class="cls-1"/>
</svg>
