<svg xmlns="http://www.w3.org/2000/svg" xmlns:xlink="http://www.w3.org/1999/xlink" preserveAspectRatio="xMidYMid" width="40" height="30" viewBox="0 0 40 30">
  <defs>
    <style>
      .cls-1 {
        fill: #353535;
        fill-rule: evenodd;
      }
    </style>
  </defs>
  <path d="M38.682,14.013 C34.893,11.171 31.106,8.329 27.318,5.487 C24.884,3.657 22.441,1.837 20.012,0.000 L20.006,0.000 C13.562,4.826 7.125,9.660 0.683,14.488 C0.454,14.652 0.240,14.837 0.000,14.986 L0.000,15.002 C6.672,20.000 13.340,25.000 20.009,30.001 C26.675,25.004 33.333,19.996 40.001,15.001 L40.001,14.988 C39.548,14.682 39.123,14.335 38.682,14.013 ZM27.547,21.602 C26.254,21.600 24.960,21.604 23.666,21.601 C23.668,20.392 23.666,19.184 23.667,17.976 C23.662,17.416 23.689,16.856 23.702,16.297 C23.705,15.230 23.875,14.174 23.938,13.112 C23.860,13.224 23.841,13.363 23.803,13.492 C23.037,16.196 22.275,18.899 21.508,21.603 C20.507,21.601 19.506,21.603 18.504,21.601 C18.011,19.857 17.516,18.113 17.022,16.368 C16.710,15.283 16.415,14.193 16.093,13.112 C16.085,13.173 16.071,13.233 16.083,13.294 C16.140,13.895 16.200,14.495 16.253,15.095 C16.284,15.774 16.314,16.454 16.342,17.133 C16.345,18.623 16.342,20.112 16.343,21.601 C15.049,21.601 13.755,21.603 12.461,21.601 C12.463,17.203 12.461,12.806 12.462,8.408 C14.202,8.408 15.941,8.408 17.681,8.408 C18.419,11.014 19.154,13.619 19.891,16.225 C19.926,16.358 19.964,16.491 20.013,16.619 C20.782,13.882 21.561,11.147 22.330,8.410 C24.070,8.407 25.810,8.407 27.549,8.410 C27.545,12.808 27.550,17.205 27.547,21.602 Z" class="cls-1"/>
</svg>
